G04 #@! TF.GenerationSoftware,KiCad,Pcbnew,(5.1.2-1)-1*
G04 #@! TF.CreationDate,2020-04-26T22:11:32-04:00*
G04 #@! TF.ProjectId,pcb-test-swatch,7063622d-7465-4737-942d-737761746368,rev?*
G04 #@! TF.SameCoordinates,Original*
G04 #@! TF.FileFunction,Legend,Bot*
G04 #@! TF.FilePolarity,Positive*
%FSLAX46Y46*%
G04 Gerber Fmt 4.6, Leading zero omitted, Abs format (unit mm)*
G04 Created by KiCad (PCBNEW (5.1.2-1)-1) date 2020-04-26 22:11:32*
%MOMM*%
%LPD*%
G04 APERTURE LIST*
%ADD10C,0.150000*%
%ADD11C,0.254000*%
G04 APERTURE END LIST*
D10*
X-706380Y-3063428D02*
X-706380Y-3539619D01*
X293619Y-3539619D01*
X-420666Y-2777714D02*
X-420666Y-2301523D01*
X-706380Y-2872952D02*
X293619Y-2539619D01*
X-706380Y-2206285D01*
X-230190Y-1682476D02*
X-706380Y-1682476D01*
X293619Y-2015809D02*
X-230190Y-1682476D01*
X293619Y-1349142D01*
X-182571Y-1015809D02*
X-182571Y-682476D01*
X-706380Y-539619D02*
X-706380Y-1015809D01*
X293619Y-1015809D01*
X293619Y-539619D01*
X-706380Y460380D02*
X-230190Y127047D01*
X-706380Y-111047D02*
X293619Y-111047D01*
X293619Y269904D01*
X246000Y365142D01*
X198380Y412761D01*
X103142Y460380D01*
X-39714Y460380D01*
X-134952Y412761D01*
X-182571Y365142D01*
X-230190Y269904D01*
X-230190Y-111047D01*
X293619Y1508000D02*
X293619Y2079428D01*
X-706380Y1793714D02*
X293619Y1793714D01*
X-182571Y2412761D02*
X-182571Y2746095D01*
X-706380Y2888952D02*
X-706380Y2412761D01*
X293619Y2412761D01*
X293619Y2888952D01*
X-658761Y3269904D02*
X-706380Y3412761D01*
X-706380Y3650857D01*
X-658761Y3746095D01*
X-611142Y3793714D01*
X-515904Y3841333D01*
X-420666Y3841333D01*
X-325428Y3793714D01*
X-277809Y3746095D01*
X-230190Y3650857D01*
X-182571Y3460380D01*
X-134952Y3365142D01*
X-87333Y3317523D01*
X7904Y3269904D01*
X103142Y3269904D01*
X198380Y3317523D01*
X246000Y3365142D01*
X293619Y3460380D01*
X293619Y3698476D01*
X246000Y3841333D01*
X293619Y4127047D02*
X293619Y4698476D01*
X-706380Y4412761D02*
X293619Y4412761D01*
D11*
G36*
X-2095949Y-8862339D02*
G01*
X-9017000Y-8862339D01*
X-9017000Y8854161D01*
X-2158552Y8854161D01*
X-2095949Y-8862339D01*
X-2095949Y-8862339D01*
G37*
X-2095949Y-8862339D02*
X-9017000Y-8862339D01*
X-9017000Y8854161D01*
X-2158552Y8854161D01*
X-2095949Y-8862339D01*
M02*
