G04 #@! TF.GenerationSoftware,KiCad,Pcbnew,(5.1.2-1)-1*
G04 #@! TF.CreationDate,2020-05-09T22:41:58-04:00*
G04 #@! TF.ProjectId,pcb-test-swatch,7063622d-7465-4737-942d-737761746368,rev?*
G04 #@! TF.SameCoordinates,Original*
G04 #@! TF.FileFunction,Legend,Bot*
G04 #@! TF.FilePolarity,Positive*
%FSLAX46Y46*%
G04 Gerber Fmt 4.6, Leading zero omitted, Abs format (unit mm)*
G04 Created by KiCad (PCBNEW (5.1.2-1)-1) date 2020-05-09 22:41:58*
%MOMM*%
%LPD*%
G04 APERTURE LIST*
%ADD10C,0.150000*%
%ADD11C,0.254000*%
G04 APERTURE END LIST*
D10*
X42727619Y-43647571D02*
X43727619Y-43647571D01*
X43727619Y-43266619D01*
X43680000Y-43171380D01*
X43632380Y-43123761D01*
X43537142Y-43076142D01*
X43394285Y-43076142D01*
X43299047Y-43123761D01*
X43251428Y-43171380D01*
X43203809Y-43266619D01*
X43203809Y-43647571D01*
X42822857Y-42076142D02*
X42775238Y-42123761D01*
X42727619Y-42266619D01*
X42727619Y-42361857D01*
X42775238Y-42504714D01*
X42870476Y-42599952D01*
X42965714Y-42647571D01*
X43156190Y-42695190D01*
X43299047Y-42695190D01*
X43489523Y-42647571D01*
X43584761Y-42599952D01*
X43680000Y-42504714D01*
X43727619Y-42361857D01*
X43727619Y-42266619D01*
X43680000Y-42123761D01*
X43632380Y-42076142D01*
X43251428Y-41314238D02*
X43203809Y-41171380D01*
X43156190Y-41123761D01*
X43060952Y-41076142D01*
X42918095Y-41076142D01*
X42822857Y-41123761D01*
X42775238Y-41171380D01*
X42727619Y-41266619D01*
X42727619Y-41647571D01*
X43727619Y-41647571D01*
X43727619Y-41314238D01*
X43680000Y-41219000D01*
X43632380Y-41171380D01*
X43537142Y-41123761D01*
X43441904Y-41123761D01*
X43346666Y-41171380D01*
X43299047Y-41219000D01*
X43251428Y-41314238D01*
X43251428Y-41647571D01*
X42727619Y-39409476D02*
X42727619Y-39885666D01*
X43727619Y-39885666D01*
X43013333Y-39123761D02*
X43013333Y-38647571D01*
X42727619Y-39219000D02*
X43727619Y-38885666D01*
X42727619Y-38552333D01*
X43203809Y-38028523D02*
X42727619Y-38028523D01*
X43727619Y-38361857D02*
X43203809Y-38028523D01*
X43727619Y-37695190D01*
X43251428Y-37361857D02*
X43251428Y-37028523D01*
X42727619Y-36885666D02*
X42727619Y-37361857D01*
X43727619Y-37361857D01*
X43727619Y-36885666D01*
X42727619Y-35885666D02*
X43203809Y-36219000D01*
X42727619Y-36457095D02*
X43727619Y-36457095D01*
X43727619Y-36076142D01*
X43680000Y-35980904D01*
X43632380Y-35933285D01*
X43537142Y-35885666D01*
X43394285Y-35885666D01*
X43299047Y-35933285D01*
X43251428Y-35980904D01*
X43203809Y-36076142D01*
X43203809Y-36457095D01*
X43727619Y-34838047D02*
X43727619Y-34266619D01*
X42727619Y-34552333D02*
X43727619Y-34552333D01*
X43251428Y-33933285D02*
X43251428Y-33599952D01*
X42727619Y-33457095D02*
X42727619Y-33933285D01*
X43727619Y-33933285D01*
X43727619Y-33457095D01*
X42775238Y-33076142D02*
X42727619Y-32933285D01*
X42727619Y-32695190D01*
X42775238Y-32599952D01*
X42822857Y-32552333D01*
X42918095Y-32504714D01*
X43013333Y-32504714D01*
X43108571Y-32552333D01*
X43156190Y-32599952D01*
X43203809Y-32695190D01*
X43251428Y-32885666D01*
X43299047Y-32980904D01*
X43346666Y-33028523D01*
X43441904Y-33076142D01*
X43537142Y-33076142D01*
X43632380Y-33028523D01*
X43680000Y-32980904D01*
X43727619Y-32885666D01*
X43727619Y-32647571D01*
X43680000Y-32504714D01*
X43727619Y-32219000D02*
X43727619Y-31647571D01*
X42727619Y-31933285D02*
X43727619Y-31933285D01*
D11*
G36*
X41656448Y-29245765D02*
G01*
X41719050Y-46962265D01*
X34925000Y-46958324D01*
X34925000Y-29241824D01*
X41656448Y-29245765D01*
X41656448Y-29245765D01*
G37*
X41656448Y-29245765D02*
X41719050Y-46962265D01*
X34925000Y-46958324D01*
X34925000Y-29241824D01*
X41656448Y-29245765D01*
M02*
