G04 #@! TF.GenerationSoftware,KiCad,Pcbnew,(5.1.2-1)-1*
G04 #@! TF.CreationDate,2020-04-26T22:11:32-04:00*
G04 #@! TF.ProjectId,pcb-test-swatch,7063622d-7465-4737-942d-737761746368,rev?*
G04 #@! TF.SameCoordinates,Original*
G04 #@! TF.FileFunction,Copper,L2,Bot*
G04 #@! TF.FilePolarity,Positive*
%FSLAX46Y46*%
G04 Gerber Fmt 4.6, Leading zero omitted, Abs format (unit mm)*
G04 Created by KiCad (PCBNEW (5.1.2-1)-1) date 2020-04-26 22:11:32*
%MOMM*%
%LPD*%
G04 APERTURE LIST*
%ADD10C,0.203200*%
%ADD11C,0.254000*%
G04 APERTURE END LIST*
D10*
X3546928Y-6522357D02*
X2621642Y-6522357D01*
X2512785Y-6576785D01*
X2458357Y-6631214D01*
X2403928Y-6740071D01*
X2403928Y-6903357D01*
X2458357Y-7012214D01*
X2839357Y-6522357D02*
X2784928Y-6631214D01*
X2784928Y-6848928D01*
X2839357Y-6957785D01*
X2893785Y-7012214D01*
X3002642Y-7066642D01*
X3329214Y-7066642D01*
X3438071Y-7012214D01*
X3492499Y-6957785D01*
X3546928Y-6848928D01*
X3546928Y-6631214D01*
X3492499Y-6522357D01*
X2784928Y-5978071D02*
X3546928Y-5978071D01*
X3927928Y-5978071D02*
X3873499Y-6032500D01*
X3819071Y-5978071D01*
X3873499Y-5923642D01*
X3927928Y-5978071D01*
X3819071Y-5978071D01*
X3546928Y-5597071D02*
X3546928Y-5161642D01*
X3927928Y-5433785D02*
X2948214Y-5433785D01*
X2839357Y-5379357D01*
X2784928Y-5270500D01*
X2784928Y-5161642D01*
X2784928Y-4780642D02*
X3927928Y-4780642D01*
X2784928Y-4290785D02*
X3383642Y-4290785D01*
X3492499Y-4345214D01*
X3546928Y-4454071D01*
X3546928Y-4617357D01*
X3492499Y-4726214D01*
X3438071Y-4780642D01*
X3546928Y-3256642D02*
X2784928Y-3256642D01*
X3546928Y-3746500D02*
X2948214Y-3746500D01*
X2839357Y-3692071D01*
X2784928Y-3583214D01*
X2784928Y-3419928D01*
X2839357Y-3311071D01*
X2893785Y-3256642D01*
X2784928Y-2712357D02*
X3927928Y-2712357D01*
X3492499Y-2712357D02*
X3546928Y-2603500D01*
X3546928Y-2385785D01*
X3492499Y-2276928D01*
X3438071Y-2222500D01*
X3329214Y-2168071D01*
X3002642Y-2168071D01*
X2893785Y-2222500D01*
X2839357Y-2276928D01*
X2784928Y-2385785D01*
X2784928Y-2603500D01*
X2839357Y-2712357D01*
X2893785Y-1678214D02*
X2839357Y-1623785D01*
X2784928Y-1678214D01*
X2839357Y-1732642D01*
X2893785Y-1678214D01*
X2784928Y-1678214D01*
X2839357Y-644071D02*
X2784928Y-752928D01*
X2784928Y-970642D01*
X2839357Y-1079500D01*
X2893785Y-1133928D01*
X3002642Y-1188357D01*
X3329214Y-1188357D01*
X3438071Y-1133928D01*
X3492500Y-1079500D01*
X3546928Y-970642D01*
X3546928Y-752928D01*
X3492500Y-644071D01*
X2784928Y9071D02*
X2839357Y-99785D01*
X2893785Y-154214D01*
X3002642Y-208642D01*
X3329214Y-208642D01*
X3438071Y-154214D01*
X3492500Y-99785D01*
X3546928Y9071D01*
X3546928Y172357D01*
X3492500Y281214D01*
X3438071Y335642D01*
X3329214Y390071D01*
X3002642Y390071D01*
X2893785Y335642D01*
X2839357Y281214D01*
X2784928Y172357D01*
X2784928Y9071D01*
X2784928Y879928D02*
X3546928Y879928D01*
X3438071Y879928D02*
X3492500Y934357D01*
X3546928Y1043214D01*
X3546928Y1206499D01*
X3492500Y1315357D01*
X3383642Y1369785D01*
X2784928Y1369785D01*
X3383642Y1369785D02*
X3492500Y1424214D01*
X3546928Y1533071D01*
X3546928Y1696357D01*
X3492500Y1805214D01*
X3383642Y1859642D01*
X2784928Y1859642D01*
X3982357Y3220357D02*
X2512785Y2240642D01*
X3546928Y3601357D02*
X2567214Y3601357D01*
X2458357Y3546928D01*
X2403928Y3438071D01*
X2403928Y3383642D01*
X3927928Y3601357D02*
X3873500Y3546928D01*
X3819071Y3601357D01*
X3873500Y3655785D01*
X3927928Y3601357D01*
X3819071Y3601357D01*
X2784928Y4308928D02*
X2839357Y4200071D01*
X2893785Y4145642D01*
X3002642Y4091214D01*
X3329214Y4091214D01*
X3438071Y4145642D01*
X3492500Y4200071D01*
X3546928Y4308928D01*
X3546928Y4472214D01*
X3492500Y4581071D01*
X3438071Y4635499D01*
X3329214Y4689928D01*
X3002642Y4689928D01*
X2893785Y4635499D01*
X2839357Y4581071D01*
X2784928Y4472214D01*
X2784928Y4308928D01*
X2839357Y5615214D02*
X2784928Y5506357D01*
X2784928Y5288642D01*
X2839357Y5179785D01*
X2948214Y5125357D01*
X3383642Y5125357D01*
X3492500Y5179785D01*
X3546928Y5288642D01*
X3546928Y5506357D01*
X3492500Y5615214D01*
X3383642Y5669642D01*
X3274785Y5669642D01*
X3165928Y5125357D01*
X2784928Y6159499D02*
X3546928Y6159499D01*
X3438071Y6159499D02*
X3492500Y6213928D01*
X3546928Y6322785D01*
X3546928Y6486071D01*
X3492500Y6594928D01*
X3383642Y6649357D01*
X2784928Y6649357D01*
X3383642Y6649357D02*
X3492500Y6703785D01*
X3546928Y6812642D01*
X3546928Y6975928D01*
X3492500Y7084785D01*
X3383642Y7139214D01*
X2784928Y7139214D01*
D11*
G36*
X1587500Y-8307000D02*
G01*
X-5651500Y-8307000D01*
X-5651500Y-7791000D01*
X-5490628Y-7823000D01*
X-5050372Y-7823000D01*
X-4618575Y-7737110D01*
X-4211831Y-7568631D01*
X-3845771Y-7324038D01*
X-3534462Y-7012729D01*
X-3289869Y-6646669D01*
X-3121390Y-6239925D01*
X-3035500Y-5808128D01*
X-3035500Y-5367872D01*
X-3121390Y-4936075D01*
X-3289869Y-4529331D01*
X-3534462Y-4163271D01*
X-3845771Y-3851962D01*
X-4211831Y-3607369D01*
X-4618575Y-3438890D01*
X-5050372Y-3353000D01*
X-5490628Y-3353000D01*
X-5651500Y-3385000D01*
X-5651500Y8307000D01*
X1587500Y8307000D01*
X1587500Y-8307000D01*
X1587500Y-8307000D01*
G37*
X1587500Y-8307000D02*
X-5651500Y-8307000D01*
X-5651500Y-7791000D01*
X-5490628Y-7823000D01*
X-5050372Y-7823000D01*
X-4618575Y-7737110D01*
X-4211831Y-7568631D01*
X-3845771Y-7324038D01*
X-3534462Y-7012729D01*
X-3289869Y-6646669D01*
X-3121390Y-6239925D01*
X-3035500Y-5808128D01*
X-3035500Y-5367872D01*
X-3121390Y-4936075D01*
X-3289869Y-4529331D01*
X-3534462Y-4163271D01*
X-3845771Y-3851962D01*
X-4211831Y-3607369D01*
X-4618575Y-3438890D01*
X-5050372Y-3353000D01*
X-5490628Y-3353000D01*
X-5651500Y-3385000D01*
X-5651500Y8307000D01*
X1587500Y8307000D01*
X1587500Y-8307000D01*
M02*
