G04 #@! TF.GenerationSoftware,KiCad,Pcbnew,(5.1.2-1)-1*
G04 #@! TF.CreationDate,2020-05-09T22:41:58-04:00*
G04 #@! TF.ProjectId,pcb-test-swatch,7063622d-7465-4737-942d-737761746368,rev?*
G04 #@! TF.SameCoordinates,Original*
G04 #@! TF.FileFunction,Legend,Top*
G04 #@! TF.FilePolarity,Positive*
%FSLAX46Y46*%
G04 Gerber Fmt 4.6, Leading zero omitted, Abs format (unit mm)*
G04 Created by KiCad (PCBNEW (5.1.2-1)-1) date 2020-05-09 22:41:58*
%MOMM*%
%LPD*%
G04 APERTURE LIST*
%ADD10C,0.010000*%
G04 APERTURE END LIST*
D10*
G36*
X52832000Y-32723667D02*
G01*
X34840334Y-32723667D01*
X34840334Y-30441030D01*
X49911000Y-30441030D01*
X49922117Y-30488160D01*
X49968680Y-30512709D01*
X50070513Y-30521597D01*
X50143834Y-30522334D01*
X50376667Y-30522334D01*
X50376667Y-31919334D01*
X50630667Y-31919334D01*
X50630667Y-30945667D01*
X50630420Y-30634542D01*
X50629081Y-30397900D01*
X50625754Y-30225561D01*
X50619542Y-30107342D01*
X50609550Y-30033059D01*
X50594880Y-29992532D01*
X50574637Y-29975577D01*
X50547923Y-29972012D01*
X50544952Y-29972000D01*
X50460743Y-30010443D01*
X50419842Y-30075620D01*
X50327185Y-30204141D01*
X50166347Y-30297093D01*
X50048584Y-30331042D01*
X49944483Y-30371064D01*
X49911042Y-30437832D01*
X49911000Y-30441030D01*
X34840334Y-30441030D01*
X34840334Y-29125334D01*
X52832000Y-29125334D01*
X52832000Y-32723667D01*
X52832000Y-32723667D01*
G37*
X52832000Y-32723667D02*
X34840334Y-32723667D01*
X34840334Y-30441030D01*
X49911000Y-30441030D01*
X49922117Y-30488160D01*
X49968680Y-30512709D01*
X50070513Y-30521597D01*
X50143834Y-30522334D01*
X50376667Y-30522334D01*
X50376667Y-31919334D01*
X50630667Y-31919334D01*
X50630667Y-30945667D01*
X50630420Y-30634542D01*
X50629081Y-30397900D01*
X50625754Y-30225561D01*
X50619542Y-30107342D01*
X50609550Y-30033059D01*
X50594880Y-29992532D01*
X50574637Y-29975577D01*
X50547923Y-29972012D01*
X50544952Y-29972000D01*
X50460743Y-30010443D01*
X50419842Y-30075620D01*
X50327185Y-30204141D01*
X50166347Y-30297093D01*
X50048584Y-30331042D01*
X49944483Y-30371064D01*
X49911042Y-30437832D01*
X49911000Y-30441030D01*
X34840334Y-30441030D01*
X34840334Y-29125334D01*
X52832000Y-29125334D01*
X52832000Y-32723667D01*
M02*
