G04 #@! TF.GenerationSoftware,KiCad,Pcbnew,(5.1.2-1)-1*
G04 #@! TF.CreationDate,2020-05-09T22:41:58-04:00*
G04 #@! TF.ProjectId,pcb-test-swatch,7063622d-7465-4737-942d-737761746368,rev?*
G04 #@! TF.SameCoordinates,Original*
G04 #@! TF.FileFunction,Soldermask,Top*
G04 #@! TF.FilePolarity,Negative*
%FSLAX46Y46*%
G04 Gerber Fmt 4.6, Leading zero omitted, Abs format (unit mm)*
G04 Created by KiCad (PCBNEW (5.1.2-1)-1) date 2020-05-09 22:41:58*
%MOMM*%
%LPD*%
G04 APERTURE LIST*
%ADD10C,0.010000*%
%ADD11C,3.600000*%
G04 APERTURE END LIST*
D10*
G36*
X52832000Y-47117000D02*
G01*
X34840334Y-47117000D01*
X34840334Y-45728350D01*
X49615666Y-45728350D01*
X49645371Y-45822150D01*
X49720419Y-45927504D01*
X49834903Y-46029434D01*
X49884191Y-46062136D01*
X50050800Y-46123581D01*
X50254223Y-46141420D01*
X50458287Y-46114958D01*
X50570685Y-46075327D01*
X50727895Y-45957092D01*
X50842619Y-45784496D01*
X50905574Y-45581064D01*
X50907476Y-45370319D01*
X50885423Y-45277792D01*
X50788777Y-45110207D01*
X50635197Y-44981946D01*
X50446796Y-44902002D01*
X50245686Y-44879369D01*
X50053980Y-44923039D01*
X50035061Y-44931955D01*
X49943033Y-44974181D01*
X49891548Y-44990772D01*
X49888540Y-44989934D01*
X49890082Y-44946016D01*
X49902446Y-44840998D01*
X49922973Y-44697367D01*
X49923577Y-44693417D01*
X49967329Y-44407667D01*
X50383665Y-44407667D01*
X50573874Y-44406994D01*
X50695004Y-44402335D01*
X50762642Y-44389728D01*
X50792375Y-44365209D01*
X50799791Y-44324816D01*
X50800000Y-44301834D01*
X50800000Y-44196000D01*
X49830170Y-44196000D01*
X49807049Y-44333584D01*
X49757360Y-44637621D01*
X49723704Y-44868169D01*
X49705770Y-45034816D01*
X49703251Y-45147148D01*
X49715838Y-45214751D01*
X49743224Y-45247211D01*
X49777439Y-45254334D01*
X49864336Y-45224601D01*
X49929995Y-45172066D01*
X50063305Y-45084113D01*
X50235842Y-45056596D01*
X50397556Y-45084908D01*
X50547951Y-45163981D01*
X50636802Y-45288023D01*
X50671772Y-45469169D01*
X50673000Y-45521009D01*
X50639844Y-45715312D01*
X50547255Y-45862955D01*
X50405553Y-45952284D01*
X50271988Y-45974000D01*
X50097368Y-45948603D01*
X49952498Y-45880657D01*
X49860060Y-45782528D01*
X49843524Y-45740397D01*
X49794921Y-45655892D01*
X49715911Y-45635334D01*
X49637211Y-45661084D01*
X49615666Y-45728350D01*
X34840334Y-45728350D01*
X34840334Y-42015800D01*
X49572334Y-42015800D01*
X49572334Y-42121667D01*
X50461334Y-42121667D01*
X50461334Y-42354500D01*
X50464081Y-42487849D01*
X50478601Y-42557282D01*
X50514312Y-42583519D01*
X50567167Y-42587334D01*
X50627780Y-42581290D01*
X50659340Y-42549345D01*
X50671266Y-42470782D01*
X50673000Y-42354500D01*
X50675133Y-42221393D01*
X50689108Y-42152112D01*
X50726295Y-42125816D01*
X50798058Y-42121667D01*
X50800000Y-42121667D01*
X50892960Y-42108362D01*
X50925690Y-42058856D01*
X50927000Y-42037000D01*
X50907042Y-41975027D01*
X50832784Y-41953207D01*
X50800000Y-41952334D01*
X50673000Y-41952334D01*
X50673000Y-41296167D01*
X50672666Y-41047757D01*
X50670462Y-40871622D01*
X50664587Y-40755369D01*
X50653237Y-40686606D01*
X50634612Y-40652940D01*
X50606907Y-40641981D01*
X50577750Y-40641224D01*
X50530698Y-40657565D01*
X50466654Y-40710667D01*
X50378954Y-40808217D01*
X50260934Y-40957904D01*
X50105931Y-41167416D01*
X50027417Y-41276190D01*
X49847355Y-41533045D01*
X49709700Y-41742528D01*
X49617820Y-41899166D01*
X49575081Y-41997487D01*
X49572334Y-42015800D01*
X34840334Y-42015800D01*
X34840334Y-39920334D01*
X52832000Y-39920334D01*
X52832000Y-47117000D01*
X52832000Y-47117000D01*
G37*
X52832000Y-47117000D02*
X34840334Y-47117000D01*
X34840334Y-45728350D01*
X49615666Y-45728350D01*
X49645371Y-45822150D01*
X49720419Y-45927504D01*
X49834903Y-46029434D01*
X49884191Y-46062136D01*
X50050800Y-46123581D01*
X50254223Y-46141420D01*
X50458287Y-46114958D01*
X50570685Y-46075327D01*
X50727895Y-45957092D01*
X50842619Y-45784496D01*
X50905574Y-45581064D01*
X50907476Y-45370319D01*
X50885423Y-45277792D01*
X50788777Y-45110207D01*
X50635197Y-44981946D01*
X50446796Y-44902002D01*
X50245686Y-44879369D01*
X50053980Y-44923039D01*
X50035061Y-44931955D01*
X49943033Y-44974181D01*
X49891548Y-44990772D01*
X49888540Y-44989934D01*
X49890082Y-44946016D01*
X49902446Y-44840998D01*
X49922973Y-44697367D01*
X49923577Y-44693417D01*
X49967329Y-44407667D01*
X50383665Y-44407667D01*
X50573874Y-44406994D01*
X50695004Y-44402335D01*
X50762642Y-44389728D01*
X50792375Y-44365209D01*
X50799791Y-44324816D01*
X50800000Y-44301834D01*
X50800000Y-44196000D01*
X49830170Y-44196000D01*
X49807049Y-44333584D01*
X49757360Y-44637621D01*
X49723704Y-44868169D01*
X49705770Y-45034816D01*
X49703251Y-45147148D01*
X49715838Y-45214751D01*
X49743224Y-45247211D01*
X49777439Y-45254334D01*
X49864336Y-45224601D01*
X49929995Y-45172066D01*
X50063305Y-45084113D01*
X50235842Y-45056596D01*
X50397556Y-45084908D01*
X50547951Y-45163981D01*
X50636802Y-45288023D01*
X50671772Y-45469169D01*
X50673000Y-45521009D01*
X50639844Y-45715312D01*
X50547255Y-45862955D01*
X50405553Y-45952284D01*
X50271988Y-45974000D01*
X50097368Y-45948603D01*
X49952498Y-45880657D01*
X49860060Y-45782528D01*
X49843524Y-45740397D01*
X49794921Y-45655892D01*
X49715911Y-45635334D01*
X49637211Y-45661084D01*
X49615666Y-45728350D01*
X34840334Y-45728350D01*
X34840334Y-42015800D01*
X49572334Y-42015800D01*
X49572334Y-42121667D01*
X50461334Y-42121667D01*
X50461334Y-42354500D01*
X50464081Y-42487849D01*
X50478601Y-42557282D01*
X50514312Y-42583519D01*
X50567167Y-42587334D01*
X50627780Y-42581290D01*
X50659340Y-42549345D01*
X50671266Y-42470782D01*
X50673000Y-42354500D01*
X50675133Y-42221393D01*
X50689108Y-42152112D01*
X50726295Y-42125816D01*
X50798058Y-42121667D01*
X50800000Y-42121667D01*
X50892960Y-42108362D01*
X50925690Y-42058856D01*
X50927000Y-42037000D01*
X50907042Y-41975027D01*
X50832784Y-41953207D01*
X50800000Y-41952334D01*
X50673000Y-41952334D01*
X50673000Y-41296167D01*
X50672666Y-41047757D01*
X50670462Y-40871622D01*
X50664587Y-40755369D01*
X50653237Y-40686606D01*
X50634612Y-40652940D01*
X50606907Y-40641981D01*
X50577750Y-40641224D01*
X50530698Y-40657565D01*
X50466654Y-40710667D01*
X50378954Y-40808217D01*
X50260934Y-40957904D01*
X50105931Y-41167416D01*
X50027417Y-41276190D01*
X49847355Y-41533045D01*
X49709700Y-41742528D01*
X49617820Y-41899166D01*
X49575081Y-41997487D01*
X49572334Y-42015800D01*
X34840334Y-42015800D01*
X34840334Y-39920334D01*
X52832000Y-39920334D01*
X52832000Y-47117000D01*
G36*
X50441142Y-41060415D02*
G01*
X50450431Y-41167152D01*
X50454057Y-41323951D01*
X50452182Y-41476084D01*
X50440167Y-41931167D01*
X50106835Y-41943625D01*
X49939741Y-41947753D01*
X49842222Y-41942983D01*
X49799427Y-41926780D01*
X49796503Y-41896609D01*
X49798486Y-41890977D01*
X49836226Y-41821284D01*
X49909000Y-41708073D01*
X50005117Y-41567526D01*
X50112885Y-41415821D01*
X50220612Y-41269140D01*
X50316607Y-41143663D01*
X50389176Y-41055569D01*
X50426628Y-41021040D01*
X50427140Y-41021000D01*
X50441142Y-41060415D01*
X50441142Y-41060415D01*
G37*
X50441142Y-41060415D02*
X50450431Y-41167152D01*
X50454057Y-41323951D01*
X50452182Y-41476084D01*
X50440167Y-41931167D01*
X50106835Y-41943625D01*
X49939741Y-41947753D01*
X49842222Y-41942983D01*
X49799427Y-41926780D01*
X49796503Y-41896609D01*
X49798486Y-41890977D01*
X49836226Y-41821284D01*
X49909000Y-41708073D01*
X50005117Y-41567526D01*
X50112885Y-41415821D01*
X50220612Y-41269140D01*
X50316607Y-41143663D01*
X50389176Y-41055569D01*
X50426628Y-41021040D01*
X50427140Y-41021000D01*
X50441142Y-41060415D01*
D11*
X38544500Y-43688000D03*
M02*
